<?xml version="1.0" standalone="no"?>
<!DOCTYPE svg PUBLIC "-//W3C//DTD SVG 20010904//EN"
 "http://www.w3.org/TR/2001/REC-SVG-20010904/DTD/svg10.dtd">
<svg version="1.0" xmlns="http://www.w3.org/2000/svg"
 width="248" height="57" viewBox="0 0 248 57"
 preserveAspectRatio="xMidYMid meet">

<g transform="translate(0.000000,1753.000000) scale(0.100000,-0.100000)"
fill="#000000" stroke="none">
<path d="M3826 11620 c-96 -38 -146 -118 -146 -235 0 -69 31 -207 52 -232 12
-15 -26 -33 -70 -33 -56 0 -202 -31 -308 -65 -230 -75 -395 -177 -580 -360
-338 -334 -498 -767 -455 -1230 14 -145 17 -155 44 -155 35 0 105 -40 139 -79
37 -41 74 -46 65 -8 -35 143 -49 231 -54 330 -7 132 0 142 53 86 16 -17 57
-51 91 -76 75 -53 94 -83 123 -191 12 -45 26 -85 31 -88 5 -3 45 6 88 21 71
23 78 28 74 49 -4 17 5 33 31 59 47 47 86 57 151 40 75 -19 109 -16 144 12 16
14 37 47 47 73 52 145 90 192 154 192 37 0 88 35 96 66 4 14 3 51 0 82 -4 32
-10 87 -14 124 -8 72 -19 89 -84 134 -46 33 -47 31 64 91 l67 37 -50 54 c-28
30 -65 78 -83 106 -71 110 -150 151 -333 172 -71 7 -136 14 -145 14 -33 0 -18
19 60 75 88 63 280 162 332 170 52 9 82 -20 116 -108 17 -44 40 -84 60 -104
32 -30 54 -42 204 -111 46 -21 88 -52 146 -109 44 -43 95 -85 113 -92 29 -13
34 -12 51 5 10 10 28 51 40 89 36 112 68 166 137 233 l65 63 -4 54 c-6 67 -3
68 95 19 113 -57 229 -138 316 -220 105 -99 147 -152 133 -166 -9 -9 1 -16 36
-29 26 -10 84 -31 128 -49 l82 -31 36 22 37 21 -27 47 c-114 196 -273 362
-482 503 -138 93 -358 183 -514 210 -38 7 -68 16 -68 20 0 4 12 43 26 85 37
108 39 236 5 306 -52 107 -192 155 -315 107z m168 -121 c83 -66 70 -186 -25
-229 -46 -20 -85 -15 -129 19 -65 48 -60 160 9 207 46 31 108 32 145 3z"/>
<path d="M21194 11021 c-27 -12 -45 -29 -53 -49 -24 -57 3 -89 107 -127 72
-26 100 -62 83 -103 -14 -33 -47 -52 -92 -52 -36 0 -89 47 -89 79 0 12 -6 21
-15 21 -42 0 8 -94 62 -116 86 -37 188 29 168 109 -10 37 -41 62 -118 92 -37
15 -72 36 -77 46 -15 28 7 67 46 79 43 14 67 7 99 -32 17 -20 30 -27 36 -21
14 14 -27 62 -67 79 -41 17 -40 17 -90 -5z"/>
<path d="M23303 11030 c-76 -18 -143 -102 -143 -180 0 -78 62 -159 138 -180
51 -14 71 -12 117 9 130 60 156 216 52 308 -20 18 -53 37 -74 42 -42 12 -45
12 -90 1z m127 -49 c90 -64 94 -183 10 -254 -110 -93 -273 12 -246 158 19 99
155 154 236 96z"/>
<path d="M24570 11029 c-98 -40 -99 -126 -1 -168 27 -11 54 -21 60 -21 5 0 23
-12 40 -26 40 -33 42 -74 5 -103 -52 -41 -134 -18 -154 44 -7 20 -16 35 -22
33 -5 -2 -9 -7 -9 -11 1 -4 1 -16 1 -26 0 -29 56 -79 95 -87 72 -13 145 37
145 100 -1 47 -27 73 -115 109 -71 29 -80 36 -83 61 -4 34 20 63 58 71 34 7
67 -8 97 -44 26 -32 42 -21 22 15 -26 49 -90 73 -139 53z"/>
<path d="M26196 11026 c-127 -47 -168 -203 -78 -300 30 -31 95 -65 127 -66 61
0 165 60 165 96 0 22 -14 17 -45 -16 -96 -100 -265 -30 -265 110 0 139 156
204 264 110 37 -33 46 -36 46 -17 0 15 -45 59 -75 75 -37 18 -99 22 -139 8z"/>
<path d="M4882 10997 c-18 -18 -32 -37 -32 -43 0 -10 193 -204 265 -266 102
-88 330 -293 333 -299 3 -6 -252 -187 -306 -218 -29 -16 -88 -6 -238 39 -104
31 -127 29 -171 -12 -31 -29 -29 -43 10 -65 69 -42 186 -145 215 -190 45 -72
63 -141 89 -328 6 -50 15 -59 47 -51 43 11 74 48 90 106 38 142 66 234 74 242
5 5 87 51 183 103 156 84 175 92 187 78 6 -9 12 -32 12 -50 0 -41 25 -285 45
-446 20 -155 62 -334 81 -341 18 -7 138 30 152 47 10 12 38 314 48 522 3 55 9
138 15 185 5 47 9 108 9 135 0 114 35 166 168 252 143 92 242 201 257 283 9
47 -22 76 -99 92 -51 11 -67 10 -144 -10 -47 -12 -144 -50 -214 -84 -126 -60
-130 -61 -166 -48 -20 7 -213 100 -428 206 -244 122 -401 194 -420 194 -21 0
-40 -10 -62 -33z m1321 -318 c29 -13 57 -58 57 -92 0 -28 -35 -77 -55 -77 -8
0 -16 17 -20 41 -5 27 -20 55 -43 81 -29 32 -33 41 -21 49 19 12 53 11 82 -2z"/>
<path d="M19240 11011 c0 -13 26 -21 66 -21 l34 0 0 -155 c0 -131 2 -155 15
-155 13 0 15 24 15 154 l0 155 47 3 c26 2 48 9 51 16 3 9 -24 12 -112 12 -64
0 -116 -4 -116 -9z"/>
<path d="M19554 11007 c-2 -7 -3 -82 -2 -167 2 -112 6 -154 16 -158 9 -3 12
14 12 62 l0 66 60 0 c75 0 100 -22 100 -87 0 -32 4 -43 15 -43 23 0 19 78 -5
118 l-20 33 21 29 c29 39 22 105 -16 137 -22 19 -38 23 -101 23 -52 0 -76 -4
-80 -13z m167 -36 c27 -33 24 -77 -6 -106 -20 -21 -34 -25 -80 -25 l-55 0 0
81 0 81 61 -4 c49 -4 66 -9 80 -27z"/>
<path d="M19967 11013 c-4 -6 -69 -206 -101 -310 -5 -17 -3 -23 8 -23 9 0 22
24 36 65 l22 65 53 0 54 0 17 -57 c20 -65 28 -78 42 -69 15 9 -92 330 -111
334 -8 2 -17 -1 -20 -5z m48 -136 l7 -37 -42 0 c-29 0 -41 4 -38 13 3 6 13 37
23 67 l18 55 13 -30 c7 -17 15 -47 19 -68z"/>
<path d="M20148 11015 c-8 -8 91 -317 106 -333 10 -11 15 -11 24 1 10 11 112
314 112 331 0 3 -6 6 -14 6 -9 0 -30 -51 -60 -146 -26 -80 -49 -144 -51 -143
-2 2 -24 68 -50 147 -43 131 -52 151 -67 137z"/>
<path d="M20492 10848 l3 -173 104 0 c75 0 106 4 109 13 3 9 -20 12 -92 12
l-96 0 0 55 0 54 77 3 c50 2 78 7 81 16 3 9 -17 12 -77 12 l-81 0 0 75 0 74
92 3 c62 2 93 7 96 16 3 9 -23 12 -107 12 l-111 0 2 -172z"/>
<path d="M20832 10848 l3 -173 104 0 c75 0 106 4 109 13 3 9 -20 12 -92 12
l-95 0 -3 157 c-2 116 -6 157 -16 161 -10 3 -12 -33 -10 -170z"/>
<path d="M21726 11012 c-5 -9 -106 -319 -106 -327 0 -3 7 -5 15 -5 9 0 21 23
33 63 l18 62 56 3 56 3 19 -62 c17 -58 43 -91 43 -55 0 13 -75 258 -95 309 -7
18 -30 23 -39 9z m38 -96 c22 -74 21 -76 -24 -76 -22 0 -40 1 -40 3 0 2 7 26
16 53 9 27 17 55 20 62 6 22 12 13 28 -42z"/>
<path d="M21960 10851 c0 -144 2 -171 15 -171 12 0 15 24 17 138 l3 137 80
-137 c110 -190 115 -189 115 32 0 144 -2 170 -15 170 -13 0 -15 -22 -15 -135
0 -74 -3 -135 -7 -135 -5 0 -42 60 -83 133 -105 184 -110 182 -110 -32z"/>
<path d="M22320 10850 l0 -170 26 -6 c47 -12 146 4 186 31 105 70 101 231 -7
292 -33 18 -56 23 -122 23 l-83 0 0 -170z m195 120 c61 -38 82 -123 46 -190
-25 -48 -70 -71 -146 -78 l-65 -5 0 147 0 146 66 0 c49 0 75 -5 99 -20z"/>
<path d="M22872 11008 c3 -7 25 -14 51 -16 l47 -3 0 -155 c0 -130 2 -154 15
-154 13 0 15 24 15 155 l0 155 34 0 c40 0 66 8 66 21 0 5 -52 9 -116 9 -88 0
-115 -3 -112 -12z"/>
<path d="M23650 10875 l0 -147 28 -28 c59 -59 147 -44 185 30 14 29 17 57 15
159 -2 89 -7 126 -15 129 -10 3 -13 -26 -13 -125 0 -109 -3 -133 -19 -160 -24
-39 -67 -51 -110 -28 -38 19 -41 30 -44 184 -1 89 -6 126 -14 129 -10 3 -13
-30 -13 -143z"/>
<path d="M24000 10849 c0 -132 3 -170 13 -167 7 3 13 28 15 66 l3 62 52 0 c75
0 97 -18 97 -81 0 -37 4 -49 15 -49 23 0 20 91 -4 121 -19 24 -19 25 0 48 12
15 19 39 19 68 0 36 -6 50 -29 74 -27 27 -35 29 -105 29 l-76 0 0 -171z m154
130 c20 -16 26 -29 26 -60 0 -57 -26 -79 -95 -79 l-55 0 0 80 0 80 49 0 c34 0
56 -6 75 -21z"/>
<path d="M24334 11007 c-2 -7 -3 -82 -2 -167 2 -112 6 -154 16 -158 9 -3 12
35 12 167 0 111 -4 171 -10 171 -6 0 -13 -6 -16 -13z"/>
<path d="M24844 11007 c-2 -7 -3 -82 -2 -167 2 -112 6 -154 16 -158 9 -3 12
29 12 137 0 78 3 141 8 141 4 -1 28 -30 55 -65 26 -36 51 -65 55 -65 5 0 30
30 58 67 l49 68 5 -140 c4 -116 8 -140 20 -140 13 0 15 25 15 165 0 202 -5
207 -89 95 -31 -41 -58 -75 -59 -75 -2 0 -27 34 -56 75 -52 72 -76 90 -87 62z"/>
<path d="M25460 10851 c0 -145 2 -170 16 -175 9 -3 53 -6 99 -6 86 0 115 5
115 21 0 5 -45 9 -100 9 l-100 0 0 160 c0 136 -2 160 -15 160 -13 0 -15 -25
-15 -169z"/>
<path d="M25777 11013 c-4 -3 -7 -80 -7 -169 0 -191 -11 -177 134 -172 60 2
91 7 94 16 3 9 -21 12 -97 12 l-101 0 0 160 c0 146 -4 173 -23 153z"/>
<path d="M7331 10354 c-137 -29 -292 -123 -405 -245 l-66 -71 0 116 0 116 -75
0 -75 0 0 -880 0 -880 75 0 75 0 0 585 c0 390 4 602 11 637 27 129 125 283
232 364 362 274 874 107 1018 -331 23 -69 23 -76 27 -662 l3 -593 69 0 69 0 3
603 3 602 27 73 c37 102 83 175 154 248 195 197 482 248 733 129 161 -77 267
-194 335 -369 l31 -81 3 -602 3 -603 69 0 70 0 0 588 c0 635 -2 655 -55 783
-99 236 -303 410 -550 470 -108 25 -257 25 -358 0 -201 -52 -406 -207 -505
-383 -15 -27 -30 -48 -34 -48 -4 0 -22 28 -40 63 -21 41 -65 95 -128 157 -78
79 -112 105 -186 143 -121 62 -228 87 -364 86 -58 0 -134 -7 -169 -15z"/>
<path d="M11390 10351 c-357 -79 -638 -346 -742 -707 -20 -69 -23 -102 -23
-249 0 -201 15 -267 95 -430 122 -247 354 -440 620 -516 104 -29 325 -38 430
-16 304 63 560 256 694 524 20 40 36 75 36 78 0 3 -29 5 -65 5 -63 0 -65 -1
-81 -32 -85 -166 -238 -311 -410 -389 -118 -54 -220 -72 -379 -67 -123 4 -150
8 -227 35 -333 116 -554 397 -584 744 -4 42 -3 107 1 143 l7 66 900 0 900 0
-7 38 c-26 143 -110 320 -211 443 -116 142 -319 272 -499 320 -116 31 -339 36
-455 10z m445 -141 c237 -76 435 -250 531 -467 13 -29 24 -58 24 -63 0 -6
-287 -10 -795 -10 -508 0 -795 4 -795 10 0 5 11 34 24 63 102 231 321 413 573
477 110 28 336 23 438 -10z"/>
<path d="M14055 10350 c-150 -39 -261 -107 -378 -230 l-77 -80 0 115 0 115
-75 0 -75 0 0 -880 0 -880 75 0 74 0 3 618 3 617 27 67 c75 187 210 318 400
386 64 23 88 26 198 26 109 0 135 -3 205 -27 161 -53 298 -169 375 -317 70
-135 70 -135 70 -787 l0 -583 75 0 74 0 3 608 c3 596 4 608 25 665 78 206 231
358 423 418 91 29 226 35 320 15 228 -48 420 -224 496 -456 17 -50 19 -108 22
-652 l3 -598 70 0 70 0 -3 613 c-3 611 -3 612 -27 682 -74 223 -210 384 -406
481 -121 60 -222 84 -350 84 -270 0 -513 -138 -672 -382 -24 -38 -45 -68 -47
-68 -2 0 -21 30 -42 66 -104 178 -283 311 -488 364 -104 26 -272 27 -371 0z"/>
<path d="M18171 10355 c-204 -46 -393 -151 -519 -290 -109 -119 -191 -268
-234 -425 -20 -74 -23 -107 -22 -250 0 -150 3 -173 28 -255 83 -277 262 -492
511 -615 163 -80 229 -95 430 -95 190 0 258 14 401 80 228 105 431 323 513
551 50 138 64 229 58 378 -6 161 -29 253 -97 391 -122 248 -352 439 -620 516
-99 28 -353 36 -449 14z m434 -145 c301 -96 528 -343 589 -642 92 -449 -185
-886 -633 -999 -73 -18 -105 -21 -225 -17 -124 4 -151 8 -228 35 -298 104
-513 345 -573 642 -27 129 -17 297 24 421 91 280 323 498 606 570 112 28 337
23 440 -10z"/>
<path d="M21025 10355 c-246 -54 -457 -213 -570 -429 l-35 -67 0 205 0 206
-75 0 -75 0 0 -880 0 -880 74 0 75 0 3 513 c4 502 4 514 27 587 64 209 181
382 326 485 114 81 199 113 347 130 l56 6 11 63 c6 34 11 66 11 69 0 11 -111
6 -175 -8z"/>
<path d="M22599 10351 c-180 -39 -359 -141 -495 -283 -180 -187 -274 -419
-274 -672 0 -267 95 -493 289 -687 106 -106 204 -172 333 -224 131 -53 227
-68 392 -62 148 5 224 20 343 70 148 61 341 218 423 346 l35 54 3 -192 2 -191
66 0 65 0 -3 523 c-4 598 -4 592 -97 782 -132 268 -356 452 -646 531 -95 26
-329 28 -436 5z m399 -131 c272 -65 500 -266 597 -525 171 -453 -66 -951 -525
-1106 -84 -29 -111 -33 -235 -37 -163 -5 -244 9 -363 60 -156 68 -278 169
-370 307 -101 150 -142 289 -142 475 0 213 69 401 206 561 108 128 305 241
475 274 86 17 268 12 357 -9z"/>
<path d="M22715 10089 c-109 -22 -137 -31 -212 -69 -91 -46 -214 -158 -273
-248 -18 -29 -39 -52 -47 -52 -18 0 -16 -10 5 -27 16 -13 16 -14 0 -9 -15 4
-16 1 -7 -21 7 -20 6 -28 -8 -40 -17 -14 -17 -14 2 -8 11 3 32 9 48 12 34 7
36 23 2 23 -30 0 -33 16 -5 25 16 5 17 10 9 24 -9 13 -6 24 12 52 54 79 183
194 249 222 14 6 32 16 40 22 27 21 178 75 209 75 35 0 61 9 61 21 0 10 -28
10 -85 -2z"/>
<path d="M22822 10088 c6 -17 50 -17 55 0 3 8 -6 12 -27 12 -21 0 -30 -4 -28
-12z"/>
<path d="M22980 10060 c20 -13 40 -13 40 0 0 6 -12 10 -27 10 -22 0 -25 -2
-13 -10z"/>
<path d="M23119 9999 c13 -11 26 -17 29 -14 8 8 -20 35 -37 35 -12 -1 -11 -5
8 -21z"/>
<path d="M22745 9961 c-59 -7 -98 -17 -185 -51 -25 -10 -58 -22 -75 -26 -16
-5 -35 -20 -41 -33 -7 -13 -22 -33 -33 -45 -76 -75 -140 -187 -159 -281 -6
-27 -9 -97 -6 -154 4 -86 9 -115 34 -175 66 -156 202 -283 347 -323 92 -25
103 -26 103 -14 0 6 -8 11 -18 11 -10 0 -22 4 -27 9 -6 4 -34 16 -62 27 -29
10 -53 22 -53 26 0 4 -7 8 -15 8 -8 0 -25 11 -37 25 -12 14 -28 23 -35 21 -7
-3 -13 1 -13 9 0 8 -14 22 -32 31 -49 25 -138 149 -138 191 0 12 -7 48 -15 80
-9 32 -15 83 -13 113 2 58 29 183 46 216 5 10 15 30 21 44 7 14 27 43 46 64
28 34 36 38 49 27 12 -10 14 -25 9 -72 -4 -39 -2 -59 5 -59 14 0 24 33 16 53
-3 8 -1 24 5 35 7 14 5 26 -10 51 -19 32 -19 32 1 21 11 -6 20 -17 20 -25 0
-8 5 -15 10 -15 6 0 10 7 10 15 0 9 7 26 15 39 17 26 62 29 89 7 8 -7 25 -9
40 -5 30 7 35 -10 12 -41 -16 -22 -5 -55 19 -55 8 0 22 -11 31 -25 19 -30 44
-33 44 -6 0 11 5 23 11 27 6 3 9 15 6 25 -3 10 -1 22 5 25 5 3 12 -3 15 -15 3
-14 13 -21 29 -21 31 0 53 -38 27 -46 -35 -11 -48 -21 -49 -40 -1 -11 -2 -24
-3 -30 -1 -6 -12 -17 -26 -24 -14 -7 -25 -21 -25 -30 0 -29 -42 -58 -92 -62
-26 -3 -54 -11 -63 -18 -18 -15 -19 -59 -1 -82 16 -22 30 -23 50 -2 15 14 16
14 16 -5 0 -11 9 -25 20 -31 11 -6 20 -15 20 -21 0 -6 9 -23 20 -39 17 -24 18
-29 5 -46 -26 -35 -14 -73 43 -135 23 -26 23 -28 11 -102 -10 -62 -10 -78 0
-91 20 -23 38 -19 45 10 4 14 20 33 36 42 17 9 30 20 30 25 0 14 -24 7 -56
-18 -18 -14 -35 -22 -37 -18 -3 5 0 36 6 71 9 60 9 64 -15 90 -41 45 -52 77
-40 109 6 15 12 37 14 48 2 14 12 20 36 21 17 1 32 -2 32 -7 0 -5 -4 -9 -9 -9
-22 0 -20 -40 2 -85 l24 -47 22 44 c23 48 26 73 11 83 -5 3 -10 11 -10 17 0 6
10 2 23 -10 13 -12 33 -22 44 -22 15 0 23 -7 25 -22 2 -17 14 -25 53 -34 27
-7 51 -11 53 -9 9 9 -11 25 -32 25 -12 0 -35 14 -51 30 -16 17 -34 30 -40 30
-7 0 -23 9 -36 21 -14 12 -31 18 -43 15 -11 -3 -26 0 -33 6 -12 10 -31 8 -95
-8 -25 -6 -28 -4 -28 19 0 14 -7 27 -15 31 -19 7 -20 36 -1 36 25 0 46 -12 46
-26 0 -17 16 -18 24 -1 5 10 7 10 12 0 6 -14 32 -17 58 -7 27 10 18 23 -21 30
-56 10 -70 20 -77 55 -5 26 -1 38 17 58 13 14 27 33 30 42 6 19 105 69 136 69
39 0 16 60 -42 109 -21 17 -27 31 -25 52 2 18 -5 36 -21 53 -14 14 -20 26 -15
26 16 -1 39 -24 62 -62 13 -21 36 -41 54 -47 37 -13 35 -14 42 23 3 15 10 33
16 40 7 10 3 26 -16 60 -14 25 -23 46 -20 46 3 0 24 -7 46 -16 31 -13 40 -21
40 -40 0 -13 6 -24 13 -24 6 0 27 -15 46 -32 29 -26 33 -33 22 -50 -9 -15 -9
-20 4 -24 8 -4 15 -14 15 -24 0 -10 14 -28 31 -40 20 -15 28 -28 24 -38 -3 -9
2 -37 11 -63 16 -43 16 -53 3 -101 -27 -100 5 -223 51 -198 10 5 20 7 23 4 16
-17 -94 -212 -131 -233 -12 -7 -14 -13 -7 -20 22 -22 155 155 155 207 0 18 18
14 23 -5 3 -10 4 1 2 23 -3 57 -11 67 -49 60 -27 -5 -33 -2 -43 22 -11 25 -10
129 2 140 3 3 11 -9 17 -26 15 -39 29 -37 40 7 5 17 15 34 23 38 18 6 19 35 3
51 -7 7 -13 29 -15 49 -1 20 -8 40 -15 45 -11 6 -10 10 1 17 20 13 -23 83 -91
148 -114 111 -153 129 -368 167 -8 1 -42 0 -75 -3z m40 -31 c3 -5 -3 -10 -14
-10 -11 0 -30 -4 -43 -9 -13 -5 -42 -15 -66 -22 -23 -7 -47 -18 -53 -26 -13
-14 -55 -18 -63 -5 -3 5 7 15 22 22 15 7 36 17 47 23 16 9 83 24 157 36 4 0
10 -3 13 -9z m85 -62 c0 -23 -4 -23 -34 6 -34 31 -33 37 4 23 18 -7 30 -19 30
-29z m90 -32 c0 -2 -7 -9 -15 -16 -12 -10 -15 -10 -15 4 0 9 7 16 15 16 8 0
15 -2 15 -4z m-236 -82 c15 -15 22 -44 11 -44 -13 0 -65 31 -65 39 0 24 32 28
54 5z m538 -78 c8 -15 7 -18 -5 -13 -10 4 -17 -2 -21 -16 -5 -18 -8 -19 -15
-7 -4 8 -11 28 -15 44 -6 24 -5 28 10 22 16 -6 16 -4 -1 16 -18 20 -17 20 8
-2 16 -14 33 -34 39 -44z m-36 -93 c-10 -10 -19 5 -10 18 6 11 8 11 12 0 2 -7
1 -15 -2 -18z m-538 -126 c20 -13 14 -25 -17 -32 -16 -3 -35 -12 -41 -20 -6
-8 -18 -11 -26 -8 -16 6 -19 44 -4 59 11 11 70 12 88 1z"/>
<path d="M23232 9920 c13 -21 38 -35 38 -21 0 9 -33 41 -43 41 -4 0 -2 -9 5
-20z"/>
<path d="M23320 9822 c0 -12 39 -46 45 -41 6 7 -24 49 -36 49 -5 0 -9 -4 -9
-8z"/>
<path d="M23005 9810 c-9 -15 4 -30 25 -30 24 0 36 20 19 31 -19 12 -36 11
-44 -1z"/>
<path d="M23400 9699 c0 -8 7 -24 15 -35 11 -15 14 -16 15 -3 0 8 -7 24 -15
35 -11 15 -14 16 -15 3z"/>
<path d="M22134 9665 c10 -31 12 -32 19 -13 4 12 3 26 -4 34 -20 24 -26 15
-15 -21z"/>
<path d="M22127 9573 c-11 -10 -8 -43 3 -43 6 0 10 11 10 25 0 26 -2 29 -13
18z"/>
<path d="M22420 9574 c0 -4 10 -33 21 -65 20 -55 53 -99 65 -87 7 7 -33 83
-52 99 -8 6 -14 22 -14 35 0 13 -4 24 -10 24 -5 0 -10 -3 -10 -6z"/>
<path d="M22528 9573 c-28 -7 -31 -40 -8 -88 21 -44 40 -51 40 -17 0 9 7 26
15 36 21 27 19 53 -4 66 -11 5 -21 9 -23 9 -2 -1 -11 -3 -20 -6z"/>
<path d="M23450 9555 c0 -11 5 -27 10 -35 8 -12 10 -12 10 5 0 11 -5 27 -10
35 -8 12 -10 12 -10 -5z"/>
<path d="M23310 9464 c0 -8 5 -12 10 -9 6 4 8 11 5 16 -9 14 -15 11 -15 -7z"/>
<path d="M22107 9434 c-4 -4 -7 -18 -7 -31 0 -28 23 -27 28 1 4 20 -11 40 -21
30z"/>
<path d="M23464 9414 c3 -9 6 -18 6 -20 0 -3 5 -2 10 1 16 10 12 35 -6 35 -11
0 -14 -5 -10 -16z"/>
<path d="M22547 9369 c7 -7 15 -10 18 -7 3 3 -2 9 -12 12 -14 6 -15 5 -6 -5z"/>
<path d="M23316 9344 c-9 -23 -7 -44 3 -44 5 0 9 14 9 30 -1 34 -3 37 -12 14z"/>
<path d="M23420 9325 c-7 -8 -19 -15 -26 -15 -8 0 -14 -5 -14 -11 0 -7 11 -8
30 -4 33 7 41 -8 13 -24 -14 -7 -15 -12 -4 -24 8 -10 9 -21 3 -34 -5 -10 -23
-47 -39 -83 -51 -108 -116 -185 -248 -293 -5 -5 -26 -18 -45 -29 -56 -34 -17
-32 43 2 73 41 162 128 220 216 26 40 47 75 47 79 0 22 55 125 66 125 20 0 17
17 -3 29 -17 9 -17 10 0 16 9 4 24 2 32 -5 21 -18 31 -5 12 15 -9 8 -27 15
-41 15 -28 0 -33 9 -14 28 9 9 8 12 -4 12 -8 0 -21 -7 -28 -15z"/>
<path d="M22120 9267 c0 -15 29 -57 30 -42 0 6 -3 20 -6 33 -7 24 -24 31 -24
9z"/>
<path d="M23291 9184 c0 -11 3 -14 6 -6 3 7 2 16 -1 19 -3 4 -6 -2 -5 -13z"/>
<path d="M22170 9132 c0 -18 12 -42 21 -42 14 0 10 26 -6 40 -9 8 -15 8 -15 2z"/>
<path d="M23250 9110 c-6 -11 -7 -20 -3 -20 5 0 14 9 21 20 7 11 8 20 2 20 -5
0 -14 -9 -20 -20z"/>
<path d="M22920 9035 c-19 -19 -30 -35 -24 -35 5 0 24 16 43 35 18 19 29 35
24 35 -5 0 -24 -16 -43 -35z"/>
<path d="M23204 9048 c-25 -30 -108 -98 -121 -98 -5 0 -18 -9 -28 -20 -10 -11
-14 -20 -8 -20 6 0 22 9 36 20 14 11 29 20 34 20 13 0 117 109 110 116 -2 3
-13 -5 -23 -18z"/>
<path d="M22246 8995 c16 -25 34 -33 34 -17 0 10 -33 42 -44 42 -3 0 1 -11 10
-25z"/>
<path d="M22348 8888 c12 -12 25 -18 29 -14 4 4 -1 14 -11 22 -31 22 -43 17
-18 -8z"/>
<path d="M22955 8890 c-30 -14 -60 -18 -127 -17 -60 1 -88 -2 -88 -9 0 -18 19
-21 85 -17 75 4 164 27 184 47 21 22 -1 20 -54 -4z"/>
<path d="M22466 8805 c10 -8 26 -14 34 -14 11 0 10 3 -4 14 -11 8 -27 15 -35
15 -11 0 -10 -4 5 -15z"/>
<path d="M23010 8765 c-16 -19 0 -19 26 0 16 12 16 14 3 15 -9 0 -22 -7 -29
-15z"/>
<path d="M22580 8761 c0 -11 25 -21 53 -21 21 1 21 1 -3 15 -29 16 -50 19 -50
6z"/>
<path d="M22885 8730 c-3 -5 3 -10 14 -10 12 0 21 5 21 10 0 6 -6 10 -14 10
-8 0 -18 -4 -21 -10z"/>
<path d="M22743 8723 c9 -2 25 -2 35 0 9 3 1 5 -18 5 -19 0 -27 -2 -17 -5z"/>
<path d="M25430 10355 c-372 -80 -671 -366 -762 -731 -31 -126 -31 -332 0
-458 93 -373 409 -669 786 -735 89 -16 275 -13 364 5 229 47 460 198 593 388
l49 69 0 -191 0 -192 65 0 66 0 -3 533 c-4 519 -4 534 -26 606 -104 341 -359
595 -693 691 -96 28 -341 37 -439 15z m425 -145 c281 -90 485 -294 575 -575
32 -99 39 -311 15 -421 -70 -317 -314 -569 -625 -644 -115 -27 -293 -27 -406
0 -248 59 -446 221 -559 454 -66 138 -79 197 -79 366 -1 159 15 237 73 364 76
167 222 317 396 403 135 67 212 83 395 79 117 -3 159 -8 215 -26z"/>
<path d="M25515 10089 c-109 -22 -137 -31 -212 -69 -91 -46 -214 -158 -273
-248 -18 -29 -39 -52 -47 -52 -18 0 -16 -10 5 -27 16 -13 16 -14 0 -9 -15 4
-16 1 -7 -21 7 -20 6 -28 -8 -40 -17 -14 -17 -14 2 -8 11 3 32 9 48 12 34 7
36 23 2 23 -30 0 -33 16 -5 25 16 5 17 10 9 24 -9 13 -6 24 12 52 54 79 183
194 249 222 14 6 32 16 40 22 27 21 178 75 209 75 35 0 61 9 61 21 0 10 -28
10 -85 -2z"/>
<path d="M25622 10088 c6 -17 50 -17 55 0 3 8 -6 12 -27 12 -21 0 -30 -4 -28
-12z"/>
<path d="M25780 10060 c20 -13 40 -13 40 0 0 6 -12 10 -27 10 -22 0 -25 -2
-13 -10z"/>
<path d="M25919 9999 c13 -11 26 -17 29 -14 8 8 -20 35 -37 35 -12 -1 -11 -5
8 -21z"/>
<path d="M25545 9961 c-59 -7 -98 -17 -185 -51 -25 -10 -58 -22 -75 -26 -16
-5 -35 -20 -41 -33 -7 -13 -22 -33 -33 -45 -76 -75 -140 -187 -159 -281 -6
-27 -9 -97 -6 -154 4 -86 9 -115 34 -175 66 -156 202 -283 347 -323 92 -25
103 -26 103 -14 0 6 -8 11 -18 11 -10 0 -22 4 -27 9 -6 4 -34 16 -62 27 -29
10 -53 22 -53 26 0 4 -7 8 -15 8 -8 0 -25 11 -37 25 -12 14 -28 23 -35 21 -7
-3 -13 1 -13 9 0 8 -14 22 -32 31 -49 25 -138 149 -138 191 0 12 -7 48 -15 80
-9 32 -15 83 -13 113 2 58 29 183 46 216 5 10 15 30 21 44 7 14 27 43 46 64
28 34 36 38 49 27 12 -10 14 -25 9 -72 -4 -39 -2 -59 5 -59 14 0 24 33 16 53
-3 8 -1 24 5 35 7 14 5 26 -10 51 -19 32 -19 32 1 21 11 -6 20 -17 20 -25 0
-8 5 -15 10 -15 6 0 10 7 10 15 0 9 7 26 15 39 17 26 62 29 89 7 8 -7 25 -9
40 -5 30 7 35 -10 12 -41 -16 -22 -5 -55 19 -55 8 0 22 -11 31 -25 19 -30 44
-33 44 -6 0 11 5 23 11 27 6 3 9 15 6 25 -3 10 -1 22 5 25 5 3 12 -3 15 -15 3
-14 13 -21 29 -21 31 0 53 -38 27 -46 -35 -11 -48 -21 -49 -40 -1 -11 -2 -24
-3 -30 -1 -6 -12 -17 -26 -24 -14 -7 -25 -21 -25 -30 0 -29 -42 -58 -92 -62
-26 -3 -54 -11 -63 -18 -18 -15 -19 -59 -1 -82 16 -22 30 -23 50 -2 15 14 16
14 16 -5 0 -11 9 -25 20 -31 11 -6 20 -15 20 -21 0 -6 9 -23 20 -39 17 -24 18
-29 5 -46 -26 -35 -14 -73 43 -135 23 -26 23 -28 11 -102 -10 -62 -10 -78 0
-91 20 -23 38 -19 45 10 4 14 20 33 36 42 17 9 30 20 30 25 0 14 -24 7 -56
-18 -18 -14 -35 -22 -37 -18 -3 5 0 36 6 71 9 60 9 64 -15 90 -41 45 -52 77
-40 109 6 15 12 37 14 48 2 14 12 20 36 21 17 1 32 -2 32 -7 0 -5 -4 -9 -9 -9
-22 0 -20 -40 2 -85 l24 -47 22 44 c23 48 26 73 11 83 -5 3 -10 11 -10 17 0 6
10 2 23 -10 13 -12 33 -22 44 -22 15 0 23 -7 25 -22 2 -17 14 -25 53 -34 27
-7 51 -11 53 -9 9 9 -11 25 -32 25 -12 0 -35 14 -51 30 -16 17 -34 30 -40 30
-7 0 -23 9 -36 21 -14 12 -31 18 -43 15 -11 -3 -26 0 -33 6 -12 10 -31 8 -95
-8 -25 -6 -28 -4 -28 19 0 14 -7 27 -15 31 -19 7 -20 36 -1 36 25 0 46 -12 46
-26 0 -17 16 -18 24 -1 5 10 7 10 12 0 6 -14 32 -17 58 -7 27 10 18 23 -21 30
-56 10 -70 20 -77 55 -5 26 -1 38 17 58 13 14 27 33 30 42 6 19 105 69 136 69
39 0 16 60 -42 109 -21 17 -27 31 -25 52 2 18 -5 36 -21 53 -14 14 -20 26 -15
26 16 -1 39 -24 62 -62 13 -21 36 -41 54 -47 37 -13 35 -14 42 23 3 15 10 33
16 40 7 10 3 26 -16 60 -14 25 -23 46 -20 46 3 0 24 -7 46 -16 31 -13 40 -21
40 -40 0 -13 6 -24 13 -24 6 0 27 -15 46 -32 29 -26 33 -33 22 -50 -9 -15 -9
-20 4 -24 8 -4 15 -14 15 -24 0 -10 14 -28 31 -40 20 -15 28 -28 24 -38 -3 -9
2 -37 11 -63 16 -43 16 -53 3 -101 -27 -100 5 -223 51 -198 10 5 20 7 23 4 16
-17 -94 -212 -131 -233 -12 -7 -14 -13 -7 -20 22 -22 155 155 155 207 0 18 18
14 23 -5 3 -10 4 1 2 23 -3 57 -11 67 -49 60 -27 -5 -33 -2 -43 22 -11 25 -10
129 2 140 3 3 11 -9 17 -26 15 -39 29 -37 40 7 5 17 15 34 23 38 18 6 19 35 3
51 -7 7 -13 29 -15 49 -1 20 -8 40 -15 45 -11 6 -10 10 1 17 20 13 -23 83 -91
148 -114 111 -153 129 -368 167 -8 1 -42 0 -75 -3z m40 -31 c3 -5 -3 -10 -14
-10 -11 0 -30 -4 -43 -9 -13 -5 -42 -15 -66 -22 -23 -7 -47 -18 -53 -26 -13
-14 -55 -18 -63 -5 -3 5 7 15 22 22 15 7 36 17 47 23 16 9 83 24 157 36 4 0
10 -3 13 -9z m85 -62 c0 -23 -4 -23 -34 6 -34 31 -33 37 4 23 18 -7 30 -19 30
-29z m90 -32 c0 -2 -7 -9 -15 -16 -12 -10 -15 -10 -15 4 0 9 7 16 15 16 8 0
15 -2 15 -4z m-236 -82 c15 -15 22 -44 11 -44 -13 0 -65 31 -65 39 0 24 32 28
54 5z m538 -78 c8 -15 7 -18 -5 -13 -10 4 -17 -2 -21 -16 -5 -18 -8 -19 -15
-7 -4 8 -11 28 -15 44 -6 24 -5 28 10 22 16 -6 16 -4 -1 16 -18 20 -17 20 8
-2 16 -14 33 -34 39 -44z m-36 -93 c-10 -10 -19 5 -10 18 6 11 8 11 12 0 2 -7
1 -15 -2 -18z m-538 -126 c20 -13 14 -25 -17 -32 -16 -3 -35 -12 -41 -20 -6
-8 -18 -11 -26 -8 -16 6 -19 44 -4 59 11 11 70 12 88 1z"/>
<path d="M26032 9920 c13 -21 38 -35 38 -21 0 9 -33 41 -43 41 -4 0 -2 -9 5
-20z"/>
<path d="M26120 9822 c0 -12 39 -46 45 -41 6 7 -24 49 -36 49 -5 0 -9 -4 -9
-8z"/>
<path d="M25805 9810 c-9 -15 4 -30 25 -30 24 0 36 20 19 31 -19 12 -36 11
-44 -1z"/>
<path d="M26200 9699 c0 -8 7 -24 15 -35 11 -15 14 -16 15 -3 0 8 -7 24 -15
35 -11 15 -14 16 -15 3z"/>
<path d="M24934 9665 c10 -31 12 -32 19 -13 4 12 3 26 -4 34 -20 24 -26 15
-15 -21z"/>
<path d="M24927 9573 c-11 -10 -8 -43 3 -43 6 0 10 11 10 25 0 26 -2 29 -13
18z"/>
<path d="M25220 9574 c0 -4 10 -33 21 -65 20 -55 53 -99 65 -87 7 7 -33 83
-52 99 -8 6 -14 22 -14 35 0 13 -4 24 -10 24 -5 0 -10 -3 -10 -6z"/>
<path d="M25328 9573 c-28 -7 -31 -40 -8 -88 21 -44 40 -51 40 -17 0 9 7 26
15 36 21 27 19 53 -4 66 -11 5 -21 9 -23 9 -2 -1 -11 -3 -20 -6z"/>
<path d="M26250 9555 c0 -11 5 -27 10 -35 8 -12 10 -12 10 5 0 11 -5 27 -10
35 -8 12 -10 12 -10 -5z"/>
<path d="M26110 9464 c0 -8 5 -12 10 -9 6 4 8 11 5 16 -9 14 -15 11 -15 -7z"/>
<path d="M24907 9434 c-4 -4 -7 -18 -7 -31 0 -28 23 -27 28 1 4 20 -11 40 -21
30z"/>
<path d="M26264 9414 c3 -9 6 -18 6 -20 0 -3 5 -2 10 1 16 10 12 35 -6 35 -11
0 -14 -5 -10 -16z"/>
<path d="M25347 9369 c7 -7 15 -10 18 -7 3 3 -2 9 -12 12 -14 6 -15 5 -6 -5z"/>
<path d="M26116 9344 c-9 -23 -7 -44 3 -44 5 0 9 14 9 30 -1 34 -3 37 -12 14z"/>
<path d="M26220 9325 c-7 -8 -19 -15 -26 -15 -8 0 -14 -5 -14 -11 0 -7 11 -8
30 -4 33 7 41 -8 13 -24 -14 -7 -15 -12 -4 -24 8 -10 9 -21 3 -34 -5 -10 -23
-47 -39 -83 -51 -108 -116 -185 -248 -293 -5 -5 -26 -18 -45 -29 -56 -34 -17
-32 43 2 73 41 162 128 220 216 26 40 47 75 47 79 0 22 55 125 66 125 20 0 17
17 -3 29 -17 9 -17 10 0 16 9 4 24 2 32 -5 21 -18 31 -5 12 15 -9 8 -27 15
-41 15 -28 0 -33 9 -14 28 9 9 8 12 -4 12 -8 0 -21 -7 -28 -15z"/>
<path d="M24920 9267 c0 -15 29 -57 30 -42 0 6 -3 20 -6 33 -7 24 -24 31 -24
9z"/>
<path d="M26091 9184 c0 -11 3 -14 6 -6 3 7 2 16 -1 19 -3 4 -6 -2 -5 -13z"/>
<path d="M24970 9132 c0 -18 12 -42 21 -42 14 0 10 26 -6 40 -9 8 -15 8 -15 2z"/>
<path d="M26050 9110 c-6 -11 -7 -20 -3 -20 5 0 14 9 21 20 7 11 8 20 2 20 -5
0 -14 -9 -20 -20z"/>
<path d="M25720 9035 c-19 -19 -30 -35 -24 -35 5 0 24 16 43 35 18 19 29 35
24 35 -5 0 -24 -16 -43 -35z"/>
<path d="M26004 9048 c-25 -30 -108 -98 -121 -98 -5 0 -18 -9 -28 -20 -10 -11
-14 -20 -8 -20 6 0 22 9 36 20 14 11 29 20 34 20 13 0 117 109 110 116 -2 3
-13 -5 -23 -18z"/>
<path d="M25046 8995 c16 -25 34 -33 34 -17 0 10 -33 42 -44 42 -3 0 1 -11 10
-25z"/>
<path d="M25148 8888 c12 -12 25 -18 29 -14 4 4 -1 14 -11 22 -31 22 -43 17
-18 -8z"/>
<path d="M25755 8890 c-30 -14 -60 -18 -127 -17 -60 1 -88 -2 -88 -9 0 -18 19
-21 85 -17 75 4 164 27 184 47 21 22 -1 20 -54 -4z"/>
<path d="M25266 8805 c10 -8 26 -14 34 -14 11 0 10 3 -4 14 -11 8 -27 15 -35
15 -11 0 -10 -4 5 -15z"/>
<path d="M25810 8765 c-16 -19 0 -19 26 0 16 12 16 14 3 15 -9 0 -22 -7 -29
-15z"/>
<path d="M25380 8761 c0 -11 25 -21 53 -21 21 1 21 1 -3 15 -29 16 -50 19 -50
6z"/>
<path d="M25685 8730 c-3 -5 3 -10 14 -10 12 0 21 5 21 10 0 6 -6 10 -14 10
-8 0 -18 -4 -21 -10z"/>
<path d="M25543 8723 c9 -2 25 -2 35 0 9 3 1 5 -18 5 -19 0 -27 -2 -17 -5z"/>
<path d="M4439 10281 c-20 -16 -24 -30 -29 -114 -6 -107 -12 -118 -74 -140
l-39 -13 38 -18 c53 -25 90 -16 185 45 62 39 80 56 74 68 -15 37 -15 98 -1
133 l15 37 -30 10 c-49 17 -113 13 -139 -8z"/>
<path d="M3970 10025 c-10 -12 -10 -19 -2 -27 16 -16 87 2 87 22 0 22 -68 26
-85 5z"/>
<path d="M4700 9863 c-446 -295 -1153 -620 -1754 -805 -473 -146 -586 -170
-641 -134 -30 20 -35 78 -8 116 15 22 12 21 -28 -8 -99 -71 -122 -181 -51
-243 86 -77 167 -104 276 -95 300 27 592 110 936 266 74 34 164 74 200 90 189
83 608 305 875 465 66 39 167 99 225 134 157 93 164 100 156 153 -6 41 -11 46
-59 71 -29 15 -56 27 -62 27 -5 -1 -35 -17 -65 -37z"/>
<path d="M5359 9753 c-72 -191 -92 -233 -127 -267 -90 -91 -208 -111 -296 -51
l-37 25 -217 -128 c-119 -71 -269 -158 -333 -193 -111 -61 -118 -67 -162 -134
-69 -106 -118 -212 -119 -254 0 -24 20 -84 56 -169 53 -123 57 -136 54 -199
l-3 -68 -70 -13 c-111 -22 -412 -21 -515 1 -104 22 -208 58 -320 109 l-85 40
40 31 c56 44 185 173 185 186 0 5 -46 -9 -102 -31 -57 -22 -115 -45 -130 -50
-22 -8 -28 -17 -29 -42 0 -17 -4 -39 -8 -49 -6 -17 -11 -15 -49 17 l-43 35
-47 -15 c-26 -8 -80 -22 -119 -32 -40 -9 -73 -20 -73 -23 0 -14 161 -134 255
-190 175 -104 386 -175 610 -204 150 -19 206 -19 347 1 301 42 535 136 756
305 92 71 224 199 280 272 165 214 280 498 312 767 10 85 12 350 3 350 -2 0
-8 -12 -14 -27z"/>
<path d="M3713 9753 c-32 -6 -48 -29 -33 -47 9 -12 18 -13 38 -5 42 16 54 29
41 45 -6 8 -14 13 -18 13 -3 -1 -16 -4 -28 -6z"/>
<path d="M2614 8175 c-27 -32 -48 -64 -47 -73 14 -132 24 -411 22 -575 -3
-134 0 -207 6 -207 15 0 74 90 85 130 18 61 23 298 11 535 -6 126 -15 233 -20
238 -5 5 -30 -16 -57 -48z"/>
<path d="M24307 8153 c-3 -5 -8 -118 -12 -253 l-7 -245 -59 -19 c-46 -14 -69
-29 -102 -66 l-43 -48 -130 9 c-71 4 -172 11 -224 15 -67 5 -92 3 -85 -4 9
-10 76 -20 342 -54 76 -9 82 -12 73 -28 -6 -10 -10 -35 -10 -55 l0 -37 -67 6
c-205 19 -502 62 -728 106 -60 12 -144 28 -185 36 -158 30 -238 52 -497 134
-130 42 -310 131 -383 190 -60 48 -80 54 -80 25 0 -38 205 -165 360 -222 70
-26 326 -106 405 -126 165 -43 231 -61 246 -68 25 -12 238 -66 292 -74 46 -6
57 -25 15 -25 -13 0 -41 -20 -68 -48 -60 -62 -71 -113 -40 -178 12 -24 35 -55
52 -69 26 -22 39 -25 108 -25 l78 0 36 40 c34 38 36 43 36 113 0 80 -11 105
-64 139 -19 12 -23 18 -11 14 11 -2 54 -14 95 -25 78 -21 190 -40 350 -61 l95
-13 32 -43 c57 -75 172 -102 288 -69 40 12 64 28 98 63 48 53 35 49 290 83 69
10 132 24 292 65 12 3 8 -2 -11 -14 -56 -36 -73 -70 -71 -144 2 -64 4 -69 42
-108 39 -40 39 -40 116 -40 68 0 81 3 107 25 46 38 75 106 67 154 -8 49 -64
116 -110 132 -45 17 -44 27 3 34 44 7 212 51 367 95 61 17 137 38 170 47 91
23 342 102 415 131 96 37 249 119 298 159 28 23 42 42 42 59 0 13 -2 24 -5 24
-3 0 -33 -23 -66 -50 -92 -77 -327 -183 -504 -228 -22 -5 -94 -26 -160 -46
-66 -20 -128 -36 -138 -36 -11 0 -49 -7 -86 -14 -168 -37 -506 -97 -596 -106
-55 -6 -127 -15 -160 -20 -33 -5 -93 -11 -132 -15 l-73 -5 -5 27 c-3 16 -9 40
-14 55 l-9 26 87 11 c226 29 317 43 326 53 7 7 -17 9 -80 4 -49 -4 -148 -11
-219 -16 l-130 -8 -43 48 c-33 37 -56 52 -101 66 l-59 19 -7 235 c-4 129 -9
243 -12 253 -5 17 -29 23 -37 10z m168 -701 c12 -31 -15 -37 -150 -37 -135 0
-162 6 -150 37 5 12 31 15 150 15 119 0 145 -3 150 -15z m-922 -203 c33 -36
35 -72 5 -116 -43 -62 -115 -68 -163 -11 -33 39 -33 87 0 127 41 48 112 49
158 0z m1694 7 c33 -31 35 -107 4 -140 -48 -51 -123 -42 -161 19 -27 43 -25
77 5 114 39 45 109 49 152 7z"/>
<path d="M10350 7846 c-146 -40 -234 -136 -234 -256 0 -130 108 -235 270 -263
203 -35 408 139 365 309 -26 101 -110 178 -226 209 -70 18 -113 18 -175 1z
m230 -45 c198 -101 201 -315 5 -419 -45 -24 -61 -27 -150 -27 -111 0 -157 16
-223 79 -136 128 -72 322 128 387 14 5 63 7 110 6 65 -3 96 -9 130 -26z"/>
<path d="M19634 7850 c-87 -20 -147 -94 -123 -151 14 -36 57 -59 171 -95 150
-47 188 -77 188 -144 0 -43 -38 -85 -91 -100 -49 -14 -134 -12 -172 4 -38 15
-84 66 -93 102 -7 28 -24 32 -24 7 0 -27 34 -78 72 -107 97 -73 280 -46 325
49 14 29 15 40 4 75 -16 53 -71 89 -200 129 -125 40 -161 62 -161 100 0 36 34
79 76 97 77 32 201 4 226 -51 11 -25 38 -35 38 -13 0 21 -76 84 -117 96 -44
13 -72 14 -119 2z"/>
<path d="M6730 7825 c0 -12 17 -15 90 -15 l90 0 0 -235 c0 -202 2 -235 15
-235 13 0 15 33 15 235 l0 235 90 0 c73 0 90 3 90 15 0 13 -28 15 -195 15
-167 0 -195 -2 -195 -15z"/>
<path d="M7440 7590 c0 -160 4 -250 10 -250 6 0 10 40 10 100 l0 100 170 0
170 0 0 -100 c0 -60 4 -100 10 -100 6 0 10 90 10 250 0 160 -4 250 -10 250 -6
0 -10 -52 -10 -135 l0 -135 -170 0 -170 0 0 135 c0 83 -4 135 -10 135 -6 0
-10 -90 -10 -250z"/>
<path d="M8210 7590 l0 -250 190 0 c162 0 190 2 190 15 0 13 -27 15 -180 15
l-180 0 0 85 0 85 150 0 c127 0 150 2 150 15 0 13 -23 15 -150 15 l-150 0 0
120 0 120 180 0 c153 0 180 2 180 15 0 13 -28 15 -190 15 l-190 0 0 -250z"/>
<path d="M9420 7825 c0 -13 23 -15 150 -15 l150 0 0 -167 c0 -195 -11 -233
-79 -271 -45 -26 -124 -29 -174 -8 -42 17 -87 70 -87 102 0 13 -4 24 -10 24
-18 0 -11 -46 13 -81 72 -107 254 -111 329 -7 22 32 23 42 26 236 l3 202 -160
0 c-136 0 -161 -2 -161 -15z"/>
<path d="M11110 7645 c0 -217 4 -234 62 -279 97 -73 251 -46 303 55 12 22 15
71 15 224 0 123 -4 195 -10 195 -6 0 -10 -71 -10 -194 0 -184 -1 -195 -23
-227 -30 -46 -80 -69 -147 -69 -67 0 -117 23 -147 69 -22 32 -23 43 -23 227 0
123 -4 194 -10 194 -6 0 -10 -72 -10 -195z"/>
<path d="M11880 7591 c0 -161 4 -251 10 -251 6 0 10 40 10 100 l0 100 105 0
c166 0 205 -26 205 -137 0 -49 3 -63 15 -63 11 0 15 12 15 50 0 69 -22 116
-65 141 l-35 21 32 22 c67 44 85 134 41 195 -36 48 -87 65 -215 69 l-118 4 0
-251z m264 205 c46 -19 66 -52 66 -106 0 -92 -47 -120 -205 -120 l-105 0 0
120 0 120 105 0 c68 0 118 -5 139 -14z"/>
<path d="M12600 7591 c0 -215 2 -251 15 -251 12 0 15 35 17 229 l3 230 160
-227 c88 -125 168 -228 178 -230 16 -3 17 15 17 247 0 215 -2 251 -15 251 -12
0 -15 -35 -17 -229 l-3 -229 -161 226 c-88 125 -168 228 -177 230 -16 3 -17
-17 -17 -247z"/>
<path d="M13390 7590 l0 -250 190 0 c162 0 190 2 190 15 0 13 -27 15 -180 15
l-180 0 0 85 0 85 150 0 c127 0 150 2 150 15 0 13 -23 15 -150 15 l-150 0 0
120 0 120 180 0 c153 0 180 2 180 15 0 13 -28 15 -190 15 l-190 0 0 -250z"/>
<path d="M14063 7828 c2 -7 46 -77 96 -156 l91 -142 0 -95 c0 -57 4 -95 10
-95 6 0 10 39 10 96 l0 97 95 149 c52 81 95 151 95 153 0 21 -25 -7 -66 -72
-26 -43 -68 -109 -92 -146 l-43 -69 -92 146 c-51 80 -96 146 -101 146 -4 0 -6
-6 -3 -12z"/>
<path d="M15240 7590 c0 -214 2 -250 15 -250 12 0 15 35 17 232 l3 233 105
-118 c57 -64 107 -117 110 -117 3 0 52 53 110 117 l105 117 3 -232 c2 -197 5
-232 17 -232 13 0 15 36 15 250 0 211 -2 250 -14 250 -8 0 -63 -53 -121 -117
-59 -65 -110 -119 -114 -121 -4 -1 -54 51 -111 117 -58 66 -113 120 -122 120
-17 1 -18 -17 -18 -249z"/>
<path d="M16193 7678 c-35 -90 -78 -202 -97 -250 -24 -62 -31 -88 -22 -88 8 0
30 44 51 100 l38 101 110 -3 111 -3 39 -97 c22 -54 43 -98 48 -98 5 0 9 3 9 8
0 4 -42 115 -94 247 -73 187 -97 241 -112 243 -16 2 -29 -24 -81 -160z m127
25 c23 -60 44 -114 47 -120 4 -10 -18 -13 -91 -13 -53 0 -96 2 -96 4 0 4 46
126 81 214 5 12 11 22 13 22 2 0 23 -48 46 -107z"/>
<path d="M16720 7825 c0 -12 17 -15 90 -15 l90 0 0 -235 c0 -202 2 -235 15
-235 13 0 15 33 15 235 l0 235 90 0 c73 0 90 3 90 15 0 13 -28 15 -195 15
-167 0 -195 -2 -195 -15z"/>
<path d="M17360 7825 c0 -12 17 -15 90 -15 l90 0 0 -235 c0 -202 2 -235 15
-235 13 0 15 33 15 235 l0 235 90 0 c73 0 90 3 90 15 0 13 -28 15 -195 15
-167 0 -195 -2 -195 -15z"/>
<path d="M18080 7590 l0 -250 190 0 c162 0 190 2 190 15 0 13 -27 15 -180 15
l-180 0 0 85 0 85 150 0 c127 0 150 2 150 15 0 13 -23 15 -150 15 l-150 0 0
120 0 120 180 0 c153 0 180 2 180 15 0 13 -28 15 -190 15 l-190 0 0 -250z"/>
<path d="M18820 7591 c0 -161 4 -251 10 -251 6 0 10 40 10 100 l0 100 105 0
c166 0 205 -26 205 -137 0 -49 3 -63 15 -63 11 0 15 12 15 50 0 69 -22 116
-65 141 l-35 21 32 22 c67 44 85 134 41 195 -36 48 -87 65 -215 69 l-118 4 0
-251z m264 205 c46 -19 66 -52 66 -106 0 -92 -47 -120 -205 -120 l-105 0 0
120 0 120 105 0 c68 0 118 -5 139 -14z"/>
<path d="M5197 7809 c-49 -26 -91 -85 -118 -167 -14 -42 -34 -79 -55 -99 -29
-30 -37 -33 -94 -33 -117 0 -157 38 -147 140 l7 60 -35 -23 c-24 -15 -39 -36
-50 -68 -28 -83 -75 -110 -197 -110 -108 0 -126 12 -181 125 -54 112 -87 152
-137 167 -34 10 -44 9 -87 -12 -55 -28 -81 -62 -118 -159 -17 -44 -38 -79 -57
-95 -28 -23 -37 -26 -106 -23 l-75 3 -19 68 c-23 85 -42 123 -81 164 -69 73
-145 65 -226 -23 -67 -73 -89 -143 -73 -224 22 -102 76 -142 219 -164 l88 -13
-61 -61 c-106 -104 -236 -152 -339 -123 -30 8 -41 8 -47 -2 -13 -21 -9 -27 38
-57 110 -69 227 -84 306 -37 73 42 142 139 177 250 12 36 14 37 59 37 26 0 64
5 84 10 37 11 91 53 100 80 3 11 17 4 54 -27 97 -82 200 -114 250 -78 12 8 29
30 38 50 16 32 36 47 36 26 0 -5 17 -20 38 -33 31 -19 50 -23 117 -23 87 1
119 12 179 65 l34 30 16 -25 c23 -35 82 -62 153 -70 78 -9 143 17 174 69 l21
36 28 -20 c43 -31 130 -67 176 -75 134 -21 209 126 155 303 -46 152 -141 215
-244 161z m107 -154 c28 -26 65 -98 66 -127 0 -15 -9 -18 -46 -18 -49 0 -146
44 -180 81 -16 17 -15 20 19 54 45 45 99 49 141 10z m-1097 -28 c35 -33 77
-121 69 -143 -15 -39 -139 8 -199 75 -40 44 -40 58 3 86 44 30 82 24 127 -18z
m-660 22 c38 -14 71 -46 94 -91 30 -59 28 -62 -53 -54 -128 12 -198 59 -163
112 26 40 71 53 122 33z"/>
<path d="M3013 7725 c-35 -69 -37 -76 -23 -97 58 -92 100 -177 100 -204 0 -37
-67 -134 -122 -176 -74 -57 -118 -73 -203 -75 -68 -1 -80 -4 -86 -21 -6 -17 1
-24 49 -45 161 -71 254 -62 336 35 80 94 110 196 104 363 -3 99 -5 105 -51
199 -26 53 -52 96 -56 96 -5 0 -26 -34 -48 -75z"/>
<path d="M4753 7123 l-42 -50 49 -48 50 -49 40 39 c22 21 40 42 40 45 0 3 -22
30 -48 60 l-48 53 -41 -50z"/>
<path d="M4563 7114 l-40 -49 48 -49 49 -50 40 39 c22 22 40 43 40 48 0 5 -22
31 -48 59 l-48 50 -41 -48z"/>
<path d="M2991 6866 c-10 -12 -8 -17 8 -25 26 -14 31 -14 31 3 0 24 -26 38
-39 22z"/>
<path d="M3414 6869 c-9 -16 10 -31 30 -23 13 5 14 9 5 20 -14 17 -25 18 -35
3z"/>
<path d="M3352 6858 c3 -7 13 -15 22 -16 12 -3 17 1 14 10 -3 7 -13 15 -22 16
-12 3 -17 -1 -14 -10z"/>
<path d="M3821 6857 c-8 -10 -9 -45 -5 -116 6 -93 9 -104 32 -122 26 -20 72
-19 98 2 7 6 25 3 46 -5 27 -12 44 -13 72 -5 23 6 42 7 53 0 12 -6 26 -5 45 5
17 9 29 10 33 4 8 -14 48 -13 63 2 8 8 15 8 24 1 22 -18 65 -23 95 -12 38 13
56 49 57 119 1 30 5 61 10 68 4 7 2 27 -4 43 -22 52 -35 17 -35 -89 l0 -97
-55 0 c-49 0 -55 2 -60 24 l-6 24 -17 -26 c-23 -36 -57 -36 -57 -1 l0 27 -21
-27 c-25 -32 -59 -35 -59 -6 0 21 0 21 -28 0 -39 -29 -102 -25 -118 8 l-11 23
-17 -26 c-15 -22 -23 -26 -59 -23 l-42 3 -7 104 c-4 56 -9 105 -11 107 -2 3
-9 -2 -16 -9z"/>
<path d="M4522 6858 c-18 -22 -13 -251 5 -236 17 14 25 103 16 182 -7 58 -10
67 -21 54z"/>
<path d="M5191 6856 c-10 -12 -9 -17 8 -25 26 -14 40 5 19 25 -13 13 -16 13
-27 0z"/>
<path d="M5683 6862 c-8 -5 -13 -43 -15 -107 l-3 -100 -50 0 c-44 0 -50 3 -55
24 l-6 24 -17 -26 c-23 -36 -57 -36 -57 -1 l0 27 -21 -27 c-25 -32 -59 -35
-59 -5 l0 20 -26 -20 c-19 -15 -41 -21 -76 -21 -47 0 -49 1 -41 23 11 32 8 74
-7 92 -34 41 -105 -14 -103 -80 1 -35 1 -35 -43 -35 -31 0 -50 6 -65 21 -30
30 -48 10 -25 -26 30 -46 -5 -91 -82 -105 l-37 -6 39 -12 c51 -15 90 4 107 53
12 31 17 35 41 31 15 -2 45 0 67 5 24 5 60 5 92 -1 35 -7 64 -7 91 0 24 7 44
7 55 1 12 -6 26 -5 45 5 17 9 29 10 33 4 8 -14 48 -13 63 2 8 8 15 8 24 1 24
-20 72 -24 100 -9 24 13 31 13 58 0 24 -12 37 -13 64 -4 41 13 59 48 60 120 1
30 5 61 10 68 4 7 2 27 -4 43 -22 52 -35 17 -35 -89 l0 -97 -50 0 -50 0 -5
107 c-4 81 -8 105 -17 100z m-445 -134 c18 -18 14 -36 -12 -53 -19 -13 -29
-14 -45 -5 -38 20 -20 70 24 70 12 0 26 -5 33 -12z"/>
<path d="M3410 6788 c0 -7 -18 -23 -39 -35 -23 -13 -45 -37 -56 -59 -16 -33
-16 -38 -1 -52 10 -11 31 -16 58 -14 24 1 58 -6 76 -14 46 -22 137 -5 202 36
26 16 53 30 61 30 16 0 39 19 39 32 0 4 -15 8 -32 8 -18 0 -58 7 -88 15 -76
21 -135 -4 -109 -46 7 -11 11 -11 22 4 11 16 21 18 60 12 26 -4 49 -11 52 -15
10 -16 -92 -41 -152 -38 l-58 3 -3 73 c-2 55 -6 72 -17 72 -8 0 -15 -6 -15
-12z m0 -83 c0 -34 -1 -35 -40 -35 -52 0 -53 23 -2 49 20 11 38 20 40 21 1 0
2 -16 2 -35z"/>
<path d="M3003 6773 c-4 -10 -1 -19 6 -21 22 -7 81 -63 81 -77 0 -29 -93 -36
-109 -8 -13 25 -25 9 -17 -22 8 -33 44 -47 90 -34 44 12 69 47 60 83 -6 26
-75 96 -94 96 -6 0 -14 -8 -17 -17z"/>
<path d="M2305 6735 c-14 -13 -25 -35 -25 -48 0 -13 -7 -38 -15 -54 -14 -29
-13 -36 12 -112 34 -100 55 -94 24 7 -31 104 -32 102 44 102 52 0 66 4 74 18
13 25 -14 79 -50 98 -36 18 -36 18 -64 -11z m55 -30 c43 -22 37 -34 -15 -32
-34 2 -45 6 -45 18 0 32 17 36 60 14z"/>
<path d="M2665 6735 c-14 -13 -25 -35 -25 -48 0 -13 -7 -38 -15 -54 -14 -29
-13 -36 12 -112 34 -100 55 -94 24 7 -31 104 -32 102 44 102 52 0 66 4 74 18
13 25 -14 79 -50 98 -36 18 -36 18 -64 -11z m55 -30 c43 -22 37 -34 -15 -32
-34 2 -45 6 -45 18 0 32 17 36 60 14z"/>
<path d="M4643 6728 c-30 -34 -34 -55 -14 -80 13 -15 29 -22 55 -22 42 0 44
-5 14 -33 -35 -31 -63 -43 -105 -43 -38 -1 -38 -1 -13 -15 14 -8 41 -14 61
-15 87 -1 140 142 78 209 -25 27 -50 27 -76 -1z m65 -30 c25 -25 14 -41 -25
-35 -41 7 -59 20 -49 36 9 15 59 14 74 -1z"/>
<path d="M3912 6531 c-10 -6 -10 -10 3 -21 18 -15 42 0 31 19 -8 13 -16 14
-34 2z"/>
<path d="M3976 6531 c-3 -5 1 -14 8 -20 16 -13 32 2 21 19 -8 12 -22 13 -29 1z"/>
</g>
</svg>
