<?xml version="1.0" encoding="UTF-8"?><svg xmlns="http://www.w3.org/2000/svg" xmlns:xlink="http://www.w3.org/1999/xlink" viewBox="0 0 48 48" version="1.1"><g id="surface1"><path d="M35 45H13a3.01 3.01 0 0 1-3-3V4c0-1.648 1.352-3 3-3h22c1.648 0 3 1.352 3 3v38c0 1.648-1.352 3-3 3z" fill="#37474F"/><path d="M6.684 7.008c-.282 0-.555.074-.817.219-.41.23-1.277.921-.57 2.441l.316.746.57 1.3c1.454 3.306 3.883 8.84 5 13.454 1.133 4.687 1.11 12.082-.058 20.285a5.93 5.93 0 0 1-.047.266c-.328 1.738.828 2.148 1.188 2.23.129.035.27.051.406.051 1.125 0 1.55-1.035 1.734-1.48l.07-.176c.973-2.313 5.965-9.543 10.508-13.742 5.325-4.918 12.91-6.434 16.985-7.25l.23-.043c1.489-.266 1.801-1.122 1.801-1.79C44 22 42.363 22 41.824 22h-.05l-.047.004-.13.016c-1.16-.004-9.648-.18-19.28-4.204-6.942-2.898-11.743-7.343-13.985-9.738-.086-.094-.145-.172-.195-.238-.16-.211-.633-.832-1.453-.832z" fill="#FFF"/><path d="M12.672 47a.727.727 0 0 1-.176-.023c-.61-.141-.488-.79-.437-1.067.02-.09.039-.195.054-.312 1.246-8.723 1.137-16.13.04-20.664-1.305-5.403-4.383-12.051-5.618-14.91l-.332-.778c-.129-.273-.394-.844.149-1.144.511-.286.843.152.984.34.066.085.148.195.27.32 2.3 2.457 7.207 7.004 14.328 9.976 8.753 3.657 16.878 4.282 19.71 4.282l.18-.02c.707 0 1.176.031 1.176.52 0 .62-.582.734-.98.804l-.227.043c-4.152.832-11.945 2.383-17.488 7.5-4.61 4.258-9.684 11.547-10.754 14.098l-.07.176c-.153.367-.352.859-.81.859z" fill="#FF3D00"/><path d="M22.879 27.328C21.918 28.918 20.55 30.664 17 31c-1.707-3.082-.898-5.95-.57-6.648L17.676 22l3.531 1L24 25z" fill="#FFEB3B"/><path d="M13 9l.445 1.684L14 9h1l.54 1.684L16 9l1 .004L16.023 12h-.77L14.5 9.812 13.715 12h-.77L12 9.004zm8.66.496c-.308-.328-.855-.492-1.633-.496-.363.008-.668.04-.922.113-.257.07-.472.176-.652.32-.137.122-.25.27-.332.465-.082.188-.121.391-.121.61 0 .21.035.414.113.61.078.194.184.343.313.456.32.285.836.426 1.543.426.617 0 1.105-.113 1.465-.34.378-.242.566-.625.566-1.152.004-.43-.113-.766-.34-1.012zm-.812 1.707c-.184.285-.262.426-.832.426-.504 0-.555-.106-.758-.32-.172-.18-.258-.45-.258-.813 0-.3.059-.535.176-.703.191-.277.277-.422.847-.418.497 0 .551.117.754.344.149.168.223.437.223.8 0 .301-.05.528-.152.684zm6.07.672a2.285 2.285 0 0 1-.043-.332c-.031-.281-.105-.484-.223-.61-.113-.117-.332-.226-.648-.316.246-.043.437-.105.586-.183.262-.145.394-.34.394-.602 0-.14-.047-.27-.14-.383a.945.945 0 0 0-.38-.285c-.25-.11-.683-.164-1.308-.164L23 9.004v2.992h1v-1.27h.512c.566 0 .746.063.976.184.235.117.371.336.418.656.028.192.043.305.055.34.004.031.02.059.05.094H27a.473.473 0 0 1-.082-.125zm-1.191-1.621c-.133.062-.399.094-.797.094l-.93-.004v-.957h.93c.398-.004.656.02.77.062.198.078.3.215.3.414.004.176-.09.305-.273.39zM28 9h1v1.742c0 .192.016.34.047.438.035.101.094.18.172.234.215.145.558.211 1.02.203h.75l.003.383H29.84a4.662 4.662 0 0 1-.871-.063 1.652 1.652 0 0 1-.57-.23.792.792 0 0 1-.31-.348c-.058-.132-.089-.32-.089-.554zm7.75.648c-.242-.296-.578-.496-1.008-.582-.23-.046-.594-.066-1.09-.066H32v3h1.719c.394.004.687-.012.879-.035a2.59 2.59 0 0 0 .55-.14c.567-.231.852-.688.852-1.352-.004-.336-.086-.614-.25-.825zm-1.043 1.672c-.215.2-.586.297-1.117.297H33V9.383l.54-.004c.292 0 .526.023.702.062.172.043.313.11.418.211.223.2.336.493.34.883 0 .344-.102.606-.293.785z" fill="#FFF"/><path d="M13.652 5.914v1.402h.715V8H12v-.684h.633V3.773H12V3h22v1H13.652v1.266h.465v-.508h.66v1.637h-.66v-.48zm18.934-.094a4.204 4.204 0 0 0-.242.301c-.184.246-.344.496-.344.54v.652h.3V8h-1.585v-.688H31V5.566h-.285V5H32v.707l.09-.133c.066-.094.137-.195.219-.289A.767.767 0 0 1 32.91 5c.399 0 .63.172.63.54v.901h-.919v-.664zM35 3h1v1h-1zM21.371 5.82a5.854 5.854 0 0 0-.238.301c-.184.25-.348.5-.348.54v.652h.305V8H19.5v-.684h.32v-1.75h-.32v-.562h1.285v.707l.094-.137c.062-.094.133-.191.215-.285.16-.184.36-.289.601-.289.403 0 .63.176.63.54v.901h-.919v-.66zm14.95 2.176h-1.633V7.31H35V5.566h-.313V5H36v2.309h.32zM25.022 5.82a5.855 5.855 0 0 0-.238.301c-.183.25-.344.5-.344.54v.652h.301V8h-1.586v-.684h.32v-1.75h-.32v-.562h1.285v.707l.09-.137c.067-.094.137-.191.219-.285A.763.763 0 0 1 25.348 5c.402 0 .632.176.632.54v.901h-.918v-.66zm4.512 1.496l-.004-.23V5.699c0-.636-.355-.754-1.23-.758-.961.004-1.332.137-1.332.872v.343h.886v-.304c0-.32.004-.36.399-.36.32 0 .328.02.328.36v.652h-.8c-.696.004-.91.371-.91.793v-.074c0 .43.316.777.792.777h2.195v-.684zm-.957.02l-.004-.18c0 .235-.105.278-.258.278h-.304c-.168-.004-.227-.114-.227-.278v.098c0-.16.086-.277.227-.277h.566zm-11.95-.895h1.75V5.68c0-.528-.39-.73-1.292-.73h-.133c-.984.003-1.281.241-1.281.878v1.336c0 .703.414.813 1.3.836h.098c.965-.023 1.309-.09 1.309-.75v-.543h-.926v.305c0 .312-.023.32-.426.324-.246.004-.336-.012-.37-.05-.016-.016-.024-.04-.028-.087a1.478 1.478 0 0 1 0-.187zm.009-.71c0-.16.035-.227.203-.227h.37c.142 0 .196.059.196.156V6l-.77-.004z" fill="#FFEB3B"/><path d="M21.305 27.035c.054-.043.078-.05.133-.078.054-.023.085-.031.128-.066.043-.028.051-.032.094-.082.012-.012.02-.047.004-.051-.02-.012-.129.074-.219.105-.086.032-.222.055-.222.055s-.012 0-.004-.016c.008-.015.027-.066.062-.105a.502.502 0 0 1 .149-.121.775.775 0 0 1 .218-.09c.02-.008.067-.012.055-.031-.012-.016-.082 0-.137.008-.066.007-.086.007-.168.039-.074.03-.101.046-.101.046s-.082.051-.137.118c-.05.062-.07.101-.07.101s-.035.063-.05.102c-.017.043-.032.113-.032.113s-.016.082-.031.129c-.012.047-.067.18-.067.18s-.035.093-.086.175a.79.79 0 0 1-.11.145c-.026.02-.089.074-.155.098a7.368 7.368 0 0 1-.079.027s-.062.012-.105.012c-.047-.004-.113-.004-.14-.012-.024-.008-.06-.023-.063-.023l-.031-.016c-.004-.004-.004-.012-.004-.016s.008-.02.008-.02.023-.105.027-.175c.004-.063-.008-.156-.008-.156s-.023-.16-.055-.262c-.035-.113-.09-.219-.12-.285a.389.389 0 0 0-.044-.07s-.078-.262-.066-.434c.008-.117.016-.2.082-.297.016-.023.05-.062.055-.059a.146.146 0 0 0 .027.024c.004.004.016.047.035.066a.173.173 0 0 0 .035.032s.024.011.032.023a.428.428 0 0 1 .039.043l.023.043s.023.043.023.05c.004.005.028.055.028.055a.352.352 0 0 0 .031.051l.008.004s.012.004.02-.008c.003-.008-.012-.008-.024-.043-.012-.035-.012-.054-.012-.054s.008-.024 0-.055c-.008-.027-.023-.063-.023-.063s-.008-.02-.031-.039c-.02-.015-.028-.023-.024-.03.004-.013.031.007.031.007s.036.023.055.055a.216.216 0 0 1 .031.054l.012.024.004.02.008.015s.008.015.02.004c.011-.016.011-.028.011-.031 0-.004-.008-.02-.008-.02l-.023-.066c-.008-.02-.012-.036-.02-.051-.012-.016-.023-.043-.043-.067-.02-.02-.035-.027-.054-.05-.008-.02-.024-.028-.024-.047-.004-.004-.008-.02.012-.004.015.015.027.031.047.05.035.032.058.04.086.075l.027.031.035.043s.043.066.086.09c.043.023.082.031.102.035.015 0 .05 0 .062-.004.012-.004.016-.008.016-.008l.012-.007c.003-.004.003-.004.003-.008-.003-.02-.046.004-.09-.008-.042-.016-.046-.012-.07-.027a.156.156 0 0 1-.05-.07c-.02-.055-.016-.095-.051-.141-.016-.024-.051-.051-.051-.051s-.043-.043-.063-.074c-.015-.028-.054-.055-.03-.067.01-.004.05.059.089.086.027.02.05.031.074.043.028.008.063.024.07.024.004.003.024.011.036.027.015.012.02.023.03.039.013.012.028.035.032.039.004 0 .012.008.012.008s.004 0 .008-.004.008-.004.008-.004l.007-.008-.004-.008-.007-.02s-.016-.023-.024-.05c-.008-.027-.015-.058-.039-.082-.023-.027-.055-.047-.055-.047l-.03-.02-.013-.007s-.02-.02.004-.016c.02.004.032.008.036.012.003 0 .035.012.054.031.016.016.035.047.04.047 0 .004.019.04.042.066.032.024.07.047.07.047s.016.008.02.004h.012c0 .004.008 0 .008 0 .004-.004.007-.011.007-.011s.004-.012-.007-.024a.127.127 0 0 1-.055-.062l-.027-.063s-.012-.023-.043-.055l-.04-.035-.011-.011-.02-.028s-.008-.012-.011-.027c-.004-.016-.008-.043.027-.012.031.035.035.043.035.043s.012.031.027.043c.012.008.02.016.032.012.02-.004-.008-.035-.024-.067-.011-.02-.015-.062-.015-.062s-.004-.02.011-.004c.02.02.043.059.043.059s.016.02.024.027c.004.008.02.031.023.035.008.008.028.023.035.04.012.023.012.046.02.058.004.011.008.027.015.039.008.008.012.012.02.012.012 0 .016-.004.016-.004s.004-.004-.004-.016l-.012-.04.004-.01v-.013l-.004-.023-.004-.043s-.008-.062-.031-.094l-.035-.05-.016-.024c-.008-.016-.004-.023-.012-.043-.004-.02-.004-.031-.007-.055-.012-.039-.086-.097-.043-.097.02 0 .039.015.046.023.008.008.028.028.043.047.012.012.024.016.032.027.011.012.03.024.03.032.005.011.009.023.013.027 0 .004.004.043.027.078s.035.055.066.074a.367.367 0 0 0 .075.028s.015.004.011-.016c-.004-.016-.004-.02-.011-.027-.032-.035-.063-.043-.078-.09-.004-.016-.008-.02-.008-.043.004-.023.008-.027.011-.043 0-.016-.003-.04-.003-.04s-.012-.058-.04-.1a1.304 1.304 0 0 1-.05-.087c-.004-.007-.008-.035-.008-.035s-.004-.02 0-.023c0-.004-.004-.012 0-.02.008-.031.035.028.058.051.036.04.043.066.082.102.02.02.036.03.051.05.032.04.024.086.063.11.023.015.066.05.07.027.004-.031-.047-.055-.055-.094-.004-.02 0-.03-.004-.05-.003-.032-.035-.075-.035-.075s-.008-.02-.008-.062c.004-.04-.019-.082-.066-.145-.031-.043-.113-.093-.066-.097.027-.004.043.008.062.027.024.023.024.04.04.059.015.023.023.03.027.035.003.004.015.02.023.023.004.004.035.031.043.04.008.003.043.034.043.034l.031.036s.012.015.028.023a.115.115 0 0 0 .035.012l.02-.004h.003s.012-.008-.004-.02c-.015-.011-.023-.015-.023-.02-.004 0-.012-.01-.016-.015-.004 0-.004-.008-.004-.008s-.02-.043-.043-.07c-.023-.027-.027-.035-.027-.035s-.008-.004-.012-.008l-.011-.012s-.012-.007-.024-.035a1.225 1.225 0 0 0-.02-.062l-.007-.035s-.016-.02-.008-.032c.012-.015.031.043.031.043l.02.032s.011.03.054.054.102.04.102.04.012-.005.031.019c.02.015.031.039.031.039l.008.027s.012.047.016.047h.004c.004 0 .023-.008.015-.043-.007-.035-.03-.078-.03-.078s-.032-.055-.075-.09c-.04-.035-.063-.047-.063-.047s-.035-.02-.043-.054l-.011-.063-.012-.02s-.004-.023-.02-.042c-.015-.024-.035-.047-.035-.047s-.027-.032-.02-.047c.009-.035.056.031.09.058.028.024.036.043.067.07.024.02.04.032.07.048l.047.02c.02.007.032.01.047.023.02.015.024.035.04.054.01.02.015.028.03.04.012.007.036.034.04.019v-.016c-.004-.02-.016-.031-.028-.05-.02-.04-.02-.067-.047-.102a.362.362 0 0 0-.054-.055c-.016-.015-.032-.015-.047-.031-.02-.02-.024-.031-.035-.055-.024-.039-.032-.062-.063-.097a.264.264 0 0 0-.055-.051l-.011-.012-.008-.008c-.027-.027.082-.008.129.004.023.008.035.008.058.02.016.011.024.05.051.05.04 0-.004-.082-.02-.097-.023-.027-.078-.047-.078-.047l-.136-.078s-.02-.012-.024-.035c-.007-.024-.027-.117-.082-.16-.058-.04-.086-.043-.086-.051-.007-.114-.054-.164-.078-.227-.008-.015-.011-.055-.02-.05-.003 0-.03.03-.062.054-.031.024-.031.047-.031.067.004.015.012.035-.023.035-.032.004-.06-.02-.06-.02s-.023-.02-.038-.039c-.02-.023-.05-.066-.05-.066s-.036-.035-.067-.047c-.032-.012-.035-.012-.059-.02-.012-.008-.016-.008-.031-.011-.008-.004-.02-.016-.024-.004-.007.007.016.023.032.039.011.015.05.035.035.039-.012.004-.047-.012-.051-.016-.004 0-.023-.02-.043-.027-.031-.016-.031-.016-.09-.02-.008 0-.015.02.004.024.02.004.043.011.07.023.028.02.04.031.063.055.02.02.02.027.055.05.004.005.023.005.02.012-.005.008-.016.008-.016.008s-.028-.008-.028 0c0 .016.024.016.035.02.008.004.024.015.012.023a.008.008 0 0 1-.008.008.46.46 0 0 0-.078-.016c-.07-.008-.11.008-.183.004-.07-.004-.176-.02-.176-.02s-.035 0-.074-.007l-.075-.027c-.027-.012-.039-.016-.07-.012-.016 0-.027 0-.047.004l-.058.03-.036.02a.05.05 0 0 0-.023.016c-.012.008-.02.012-.027.024-.024.023-.028.043-.036.074-.003.008-.003.015-.007.023 0 .008.004.02.004.02l.007.008a.584.584 0 0 0 .164.046l.032.004s.015.012.011.02c0 .008-.011.015-.011.015s-.02 0-.032-.003a.153.153 0 0 1-.05-.008l-.036-.008-.023-.008s-.008 0-.016.008c-.007.004-.007.004-.007.008 0 .008 0 .011.003.02.004.015.008.019.016.03.012.012.024.016.04.028a.143.143 0 0 0 .07.015c.023 0 .03 0 .062.008.008 0 .02.008.031.008.047.02.067.043.11.074.039.032.054.055.093.086.047.035.067.063.121.078.028.008.047.004.047.036 0 .027-.007.039-.007.039s-.008.015-.047.047c-.043.035-.153.117-.153.117l-.074.05s-.058.043-.164.079l-.113.043s-.051.003-.11.03c-.062.024-.07.04-.12.055a.21.21 0 0 1-.087.016c-.035 0-.062-.02-.175-.004-.098.008-.157.028-.16.024a.26.26 0 0 1-.024-.047l-.09-.172-.039-.07-.016-.032-.007-.007-.004-.028s-.004-.035-.02-.07a.331.331 0 0 0-.07-.106c-.035-.03-.059-.05-.106-.058-.03-.008-.046-.004-.078.004-.035.008-.05.023-.086.043-.035.015-.07.03-.086.043-.02.007-.058.035-.058.035s-.086.05-.14.086c-.06.039-.09.062-.15.101-.09.055-.198.11-.238.137a.759.759 0 0 0-.039.031s-.015.02-.027.032c-.008.011-.02.035-.027.043a.09.09 0 0 1-.028.019c0 .004-.058.043-.086.07-.03.032-.109.13-.093.16.02.028.258.047.328-.019.043-.043-.012-.105.031-.145.016-.007.023-.007.043-.02.035-.019.063-.089.133-.124.047-.031.129-.059.246-.102.07-.023.156-.082.156-.082s.028-.023.043-.008c.02.016.04.024.04.024s.003.012.007.016c.004 0 .008.027.008.027l.008.058s.007.094.015.122c.004.027.016.05.028.082.011.035.015.054.035.093.027.067.004.07-.04.004a1.813 1.813 0 0 0-.234-.215c-.047-.035-.058-.039-.058-.039s-.028-.015-.067-.011c-.039 0-.062.007-.062.007s-.059.02-.067.028c-.003.004-.039.023-.039.023s-.015.008-.03.024c-.013.015-.02.03-.02.03l-.032.071s-.039.086-.066.18l-.023.066-.032.086s-.043.098-.05.13c-.008.03-.008.034-.012.058-.012.039-.035.047-.04.097-.003.051.012.051.012.086a.167.167 0 0 1 0 .063 1.306 1.306 0 0 0-.007.2c.007.077.015.175.054.187.04.007.09-.028.09-.028s.094-.078.121-.191c.031-.113-.105-.125-.078-.207.008-.016.024-.04.024-.04l.015-.046c0-.008-.004-.102.016-.164.012-.051.094-.195.101-.238.032-.118.024-.11.051-.122.024-.011.035.004.035.004s.02.008.024.008a.156.156 0 0 1 .011.016l.02.039c.008.012.023.055.023.055l.055.093s.031.047.047.067c.016.015.023.039.023.039l.012.023.024.043.003.012c.004.004.004.012.004.012s-.004.046.043.125c.04.062.094.078.102.117a2.413 2.413 0 0 1 .023.258l.028.12.027.126.055.148.05.125s.06.156.094.227c.04.066.078.172.094.218.02.067.023.118 0 .13-.016.003-.023-.067-.04-.126a1.28 1.28 0 0 0-.12-.265c-.043.039-.074.101-.106.164a.51.51 0 0 0-.05.148c-.016.059-.02.094-.028.153-.008.058-.015.152-.015.152l-.004.137.004.109.004.059.003.015s-.003.035-.027.047c-.02.016-.058.043-.082.035-.02-.004-.07-.027-.07-.027l-.282-.156-.144-.09s-.008-.02-.098-.063c-.05-.027-.101-.027-.133-.043-.023-.011-.132-.082-.23-.09-.086-.007-.129-.023-.18.008-.035.028.043.145.125.211.133.114.125.028.203.02.008 0 .016-.008.024-.004.047.008.05.047.09.07.043.024.07.02.117.04.23.081.516.366.516.366s.066.07.113.082c.05.012.05-.007.078-.027.023-.012.031-.015.047-.035.008-.016.008-.023.012-.04.015-.042.02-.112.02-.112s.003-.051.007-.075c.008-.039.008-.058.023-.093.032-.094.032-.086.059-.137a.615.615 0 0 1 .156-.203c.113-.102.207-.117.313-.223.027-.027.047-.078.066-.074.02.008-.012.07-.043.098-.14.132-.2.125-.305.222-.101.098-.113.121-.171.235-.028.054-.051.148-.051.148s-.024.11-.028.152l-.007.118v.148l.004.07s.011.035-.016.063c-.031.027-.067.039-.113.055a2.91 2.91 0 0 1-.461.093c-.09.016-.098.028-.11.043-.07.059-.144.02-.277.067-.031.011-.11.035-.121.082-.004.02.18.164.328.175.113.012.059-.074.11-.105.035-.023.081.004.12-.016.06-.027.036-.035.086-.058a1.36 1.36 0 0 1 .516-.113h.059s.03.003.05-.008c.024-.008.028-.028.04-.051l.015-.035.024-.043a.172.172 0 0 0 0-.078c0-.016-.008-.047.007-.094a.225.225 0 0 1 .078-.133c.047-.035.11-.055.11-.055l.148-.011.172-.028c.043-.007.133-.03.211-.066.086-.047.137-.074.2-.145C19.968 28.043 20 28 20 28s.02-.035.04-.027c.019.011.019.02.019.02s.011.019-.012.066c-.02.05-.067.093-.067.093s-.043.047-.062.078a.262.262 0 0 0-.035.055c-.02.04-.024.078-.024.078s.008.016.016-.004a.384.384 0 0 1 .055-.07c.023-.02.023-.012.058-.047.047-.039.028-.043.055-.066a.045.045 0 0 1 .047-.016c.015.008.004.031.004.031s-.02.07-.063.118c-.043.05-.125.105-.125.105l-.066.04s-.043.026-.067.046c-.027.023-.035.031-.043.063-.007.03-.007.082.008.078.016 0 .004-.04.063-.078.058-.043.113-.055.113-.055s.09-.031.137-.067c.043-.03.101-.09.101-.09s.047-.05.075-.105a.32.32 0 0 0 .027-.078v-.05c0-.005 0-.028.004-.032.004-.008.008-.016.012-.016.007 0 .015.02.023.047a.2.2 0 0 1-.008.094.148.148 0 0 1-.023.066c-.008.024-.059.094-.059.16 0 .028 0 .098.016.075.031-.051.023-.09.05-.137.036-.055.04-.031.06-.059.023-.027.034-.03.05-.074a.501.501 0 0 0 .023-.097s.008-.04.008-.047v-.016s.008-.004.016 0a.604.604 0 0 0 .199.012.561.561 0 0 0 .102-.024s.078-.03.125-.062a.712.712 0 0 0 .218-.27c.028-.058.055-.144.055-.144s.031-.106.07-.16c.035-.063.059-.086.059-.086s.031-.067.117-.102a.477.477 0 0 0 .168-.11c.031-.034.05-.113.016-.097-.035.02-.075.07-.133.102-.074.043-.184.086-.211.07-.02-.008 0-.047 0-.047s.012-.066.094-.129zm-3.766 1.39c-.027-.015-.035-.027-.047-.038-.008-.016-.023-.035-.023-.035s-.043-.051-.09-.075c-.043-.023-.129-.047-.188-.027-.054.016-.086.055-.086.055s-.05.062-.046.101c.003.047.007.09.039.149.035.058.05.078.05.078l.067.086.062.074s.098.094.067.187c-.035.094-.149.18-.313.106s-.199-.191-.199-.254c.004-.059.04-.094.04-.094l.01-.011h.009s.015.03.043.043c.023.007.082.003.101-.047a.075.075 0 0 0-.043-.094c-.023-.012-.125-.035-.195.094-.074.125.008.261.008.261s.058.094.156.141a.62.62 0 0 0 .195.055s.18.004.266-.145c.09-.148.02-.254.02-.254s-.024-.043-.047-.074l-.082-.11-.06-.077-.03-.051-.02-.032s-.035-.082.027-.117c.067-.035.153.04.153.04s.066.05.101.128c.036.07.043.14.043.14l.004.056v.003l.024.004s.015-.105.03-.144l.04-.102s-.004-.023-.02-.015c-.015 0-.043.011-.066-.004zm1.98 1.044c-.148-.063-.23-.125-.23-.125l-.144-.11s-.043-.035-.082-.054c-.036-.02-.122-.047-.122-.047s-.086-.024-.132-.016c-.047.004-.16.02-.176.133-.012.11.168.145.226.086l.02-.016.012-.011-.012-.012-.024.008s-.082.015-.113-.035c-.027-.055.028-.082.035-.082.008-.004.047-.02.11-.004.062.02.14.086.14.086l.082.066.051.039.016.012-.051.02s-.074.019-.14.066c-.07.047-.102.074-.102.074h-.008s-.043-.016-.078-.016c-.035.004-.067.016-.067.016l-.023.015.008.024s.031-.012.058-.004c.028.008.04.023.04.023s-.079.067-.11.086a.478.478 0 0 1-.148.082c-.059.024-.106.043-.2.008a.217.217 0 0 1-.132-.16c-.012-.039 0-.09.011-.117.016-.031.051-.055.051-.055s.008.035.035.051a.078.078 0 0 0 .106-.031c.027-.055-.02-.094-.02-.094s-.066-.059-.148-.004c-.078.059-.094.137-.094.137s-.043.117.04.238c.077.121.226.14.226.14s.105.02.23-.027c.125-.043.223-.125.223-.125l.062-.054.035.015s.043.032.09.024c.047-.012.086-.035.086-.035l.008-.008-.016-.02s-.039.02-.074.004c-.035-.015-.066-.039-.066-.039l.078-.066s.074-.055.098-.067c.02-.011.09-.043.09-.043a1.157 1.157 0 0 0 .343.11l.13.011.03.004.004-.027s-.113-.016-.261-.074z" fill="#263238"/></g><metadata><rdf:RDF xmlns:rdf="http://www.w3.org/1999/02/22-rdf-syntax-ns#" xmlns:rdfs="http://www.w3.org/2000/01/rdf-schema#" xmlns:dc="http://purl.org/dc/elements/1.1/"><rdf:Description about="https://iconscout.com/legal#licenses" dc:title="ferrari,logo" dc:description="ferrari,logo" dc:publisher="Iconscout" dc:date="2017-12-15" dc:format="image/svg+xml" dc:language="en"><dc:creator><rdf:Bag><rdf:li>Icons8</rdf:li></rdf:Bag></dc:creator></rdf:Description></rdf:RDF></metadata></svg>